<?xml version="1.0" encoding="UTF-8" standalone="no"?>
<!DOCTYPE svg PUBLIC "-//W3C//DTD SVG 1.1//EN" "http://www.w3.org/Graphics/SVG/1.1/DTD/svg11.dtd">
<!-- Created with Vectornator (http://vectornator.io/) -->
<svg height="100%" stroke-miterlimit="10" style="fill-rule:nonzero;clip-rule:evenodd;stroke-linecap:round;stroke-linejoin:round;" version="1.1" viewBox="0 0 100 100" width="100%" xml:space="preserve" xmlns="http://www.w3.org/2000/svg" xmlns:xlink="http://www.w3.org/1999/xlink">
<defs/>
<g id="Layer-1">
<g opacity="1">
<path d="M68.8422 49.1028C76.6693 49.1028 82.9692 42.2684 82.9692 33.3722C82.9692 24.8579 76.593 18.0617 68.8422 18.0617C61.0915 18.0617 54.639 24.9343 54.6772 33.4104C54.6772 42.2684 61.0152 49.1028 68.8422 49.1028ZM27.3778 49.9045C34.174 49.9045 39.7103 43.9865 39.7103 36.2358C39.7103 28.7905 34.0977 22.8725 27.3778 22.8725C20.658 22.8725 15.0073 28.8669 15.0836 36.274C15.0836 43.9865 20.5435 49.9045 27.3778 49.9045ZM6.60747 81.9383L36.4649 81.9383C32.6086 78.2729 36.0449 67.3532 43.9865 60.8243C40.0157 57.7316 34.594 55.4408 27.3015 55.4408C11.1892 55.4408 1.18579 67.1241 1.18579 77.242C1.18579 80.4492 2.90393 81.9383 6.60747 81.9383ZM45.1319 81.9383L92.3998 81.9383C96.8288 81.9383 98.8142 80.6401 98.8142 77.5093C98.8142 68.3077 87.2836 55.5935 68.7659 55.5935C50.2482 55.5935 38.7176 68.3077 38.7176 77.5093C38.7176 80.6401 40.703 81.9383 45.1319 81.9383Z" fill="#a3a3a3" fill-rule="nonzero" opacity="1" stroke="none"/>
</g>
</g>
</svg>
