<?xml version="1.0" encoding="UTF-8" standalone="no"?>
<!DOCTYPE svg PUBLIC "-//W3C//DTD SVG 1.1//EN" "http://www.w3.org/Graphics/SVG/1.1/DTD/svg11.dtd">
<!-- Created with Vectornator (http://vectornator.io/) -->
<svg height="100%" stroke-miterlimit="10" style="fill-rule:nonzero;clip-rule:evenodd;stroke-linecap:round;stroke-linejoin:round;" version="1.1" viewBox="0 0 100 100" width="100%" xml:space="preserve" xmlns="http://www.w3.org/2000/svg" xmlns:xlink="http://www.w3.org/1999/xlink">
<defs/>
<g id="Layer-1">
<g opacity="1">
<path d="M6.85864 46.5602C6.85864 47.5329 7.62866 48.4245 8.88501 48.4245C9.53345 48.4245 10.0198 48.1003 10.5061 47.695L48.4802 15.8405C49.4529 14.9894 50.5471 14.8679 51.6819 15.8405L89.4939 47.695C89.9802 48.1003 90.4666 48.4245 91.1555 48.4245C92.2903 48.4245 93.1414 47.695 93.1414 46.6008C93.1414 45.8713 92.8982 45.3849 92.3308 44.8986L82.8879 36.9553L82.8879 21.2307C82.8879 20.0554 82.0774 19.2448 80.9021 19.2448L77.6194 19.2448C76.4441 19.2448 75.6335 20.0554 75.6335 21.2307L75.6335 30.8356L53.9109 12.5578C51.5198 10.4909 48.6829 10.4909 46.2512 12.5578L7.70972 44.8986C7.10181 45.3849 6.85864 45.9523 6.85864 46.5602ZM17.2336 81.6164C17.2336 86.277 19.9895 88.9924 24.6501 88.9924L75.512 88.9924C80.1726 88.9924 82.8879 86.277 82.8879 81.6164L82.8879 47.4113L52.4519 21.8386C50.8308 20.4606 49.2097 20.5012 47.6292 21.8386L17.2336 47.3303L17.2336 81.6164ZM59.6252 85.1017L40.3748 85.1017L40.3748 59.0021C40.3748 57.5026 41.3879 56.53 42.8875 56.53L57.1531 56.53C58.6526 56.53 59.6252 57.5026 59.6252 59.0021L59.6252 85.1017Z" fill="#a3a3a3" fill-rule="nonzero" opacity="1" stroke="none"/>
</g>
</g>
</svg>
