<?xml version="1.0" encoding="UTF-8" standalone="no"?>
<!DOCTYPE svg PUBLIC "-//W3C//DTD SVG 1.1//EN" "http://www.w3.org/Graphics/SVG/1.1/DTD/svg11.dtd">
<!-- Created with Vectornator (http://vectornator.io/) -->
<svg height="100%" stroke-miterlimit="10" style="fill-rule:nonzero;clip-rule:evenodd;stroke-linecap:round;stroke-linejoin:round;" version="1.1" viewBox="0 0 100 100" width="100%" xml:space="preserve" xmlns="http://www.w3.org/2000/svg" xmlns:xlink="http://www.w3.org/1999/xlink">
<defs/>
<g id="Layer-1">
<g opacity="1">
<path d="M29.4729 88.1565C30.5266 88.1565 31.2966 87.5891 32.4314 86.5759L46.2917 74.3772L75.6335 74.4177C85.4006 74.4177 91.115 68.5413 91.115 58.9363L91.115 27.325C91.115 17.6794 85.4006 11.8435 75.6335 11.8435L24.3259 11.8435C14.5994 11.8435 8.88501 17.6389 8.88501 27.325L8.88501 58.9363C8.88501 68.6223 14.5994 74.3772 24.3259 74.3772L27.1628 74.3772L27.1628 85.4817C27.1628 87.1028 28.0544 88.1565 29.4729 88.1565ZM50.0203 50.0608C48.7234 50.0608 47.9534 49.2097 47.9534 47.8318L47.5886 26.9197C47.5886 25.5417 48.5208 24.5691 49.9797 24.5691C51.4387 24.5691 52.4114 25.5417 52.4114 26.9602L52.0466 47.8318C52.0061 49.2502 51.2361 50.0608 50.0203 50.0608ZM50.0203 61.7327C48.2371 61.7327 46.7375 60.2737 46.7375 58.531C46.7375 56.7883 48.1965 55.3293 50.0203 55.3293C51.8035 55.3293 53.2625 56.7478 53.2625 58.531C53.2625 60.2737 51.8035 61.7327 50.0203 61.7327Z" fill="#a3a3a3" fill-rule="nonzero" opacity="1" stroke="none"/>
</g>
</g>
</svg>
