<?xml version="1.0" encoding="UTF-8" standalone="no"?>
<!DOCTYPE svg PUBLIC "-//W3C//DTD SVG 1.1//EN" "http://www.w3.org/Graphics/SVG/1.1/DTD/svg11.dtd">
<!-- Created with Vectornator (http://vectornator.io/) -->
<svg height="100%" stroke-miterlimit="10" style="fill-rule:nonzero;clip-rule:evenodd;stroke-linecap:round;stroke-linejoin:round;" version="1.1" viewBox="0 0 100 100" width="100%" xml:space="preserve" xmlns="http://www.w3.org/2000/svg" xmlns:xlink="http://www.w3.org/1999/xlink">
<defs/>
<g id="Layer-1">
<g opacity="1">
<path d="M18.4292 75.5728L81.5708 75.5728C83.7998 75.5728 85.2183 74.2759 85.2183 72.4116C85.2183 68.521 81.6113 65.2383 78.4502 61.834C75.0054 58.0244 74.9243 50.2837 74.0732 43.2725C73.2222 31.6006 69.3721 22.9277 59.9292 20.0908C58.8755 14.8628 55.1064 11.2153 50 11.2153C44.8936 11.2153 41.1245 14.8628 40.0708 20.0908C30.6279 22.9277 26.8184 31.6006 25.9673 43.2725C25.1162 50.2837 24.9946 58.0244 21.5498 61.834C18.4292 65.2383 14.7817 68.521 14.7817 72.4116C14.7817 74.2759 16.2002 75.5728 18.4292 75.5728ZM50 88.7847C55.998 88.7847 60.2534 84.5293 61.0234 79.5444L39.0171 79.5444C39.7871 84.5293 44.002 88.7847 50 88.7847Z" fill="#a3a3a3" fill-rule="nonzero" opacity="1" stroke="none"/>
</g>
</g>
</svg>
