<?xml version="1.0" encoding="UTF-8" standalone="no"?>
<!DOCTYPE svg PUBLIC "-//W3C//DTD SVG 1.1//EN" "http://www.w3.org/Graphics/SVG/1.1/DTD/svg11.dtd">
<!-- Created with Vectornator (http://vectornator.io/) -->
<svg height="100%" stroke-miterlimit="10" style="fill-rule:nonzero;clip-rule:evenodd;stroke-linecap:round;stroke-linejoin:round;" version="1.1" viewBox="0 0 100 100" width="100%" xml:space="preserve" xmlns="http://www.w3.org/2000/svg" xmlns:xlink="http://www.w3.org/1999/xlink">
<defs/>
<g id="Layer-1">
<g opacity="1">
<path d="M46.312 89.4331L53.688 89.4331C55.7954 89.4331 57.2544 88.2578 57.7002 86.1099L59.605 78.0449C60.8208 77.5991 62.0366 77.1533 63.1309 76.667L70.1826 81.0845C72.0063 82.2192 73.8706 82.0571 75.3296 80.5981L80.5576 75.3701C82.0571 73.9111 82.2598 72.0063 81.0439 70.1421L76.667 63.1714C77.1533 61.9961 77.5991 60.8208 78.0044 59.6455L86.1099 57.7812C88.2578 57.2949 89.4331 55.8359 89.4331 53.7285L89.4331 46.3931C89.4331 44.2856 88.2578 42.8672 86.1099 42.3809L78.0449 40.4761C77.5991 39.1792 77.1533 38.0444 76.7075 36.9502L81.0845 29.8984C82.2598 28.0342 82.0977 26.2104 80.5576 24.7109L75.3296 19.5234C73.8706 18.0645 72.0874 17.8618 70.2231 18.9966L63.1309 23.4141C62.0366 22.9277 60.8613 22.4819 59.605 22.0361L57.7002 13.9307C57.2544 11.7422 55.7954 10.5669 53.688 10.5669L46.312 10.5669C44.1641 10.5669 42.7456 11.7422 42.2593 13.9307L40.3545 21.9956C39.1387 22.4414 37.9229 22.8872 36.7881 23.4141L29.6958 18.9966C27.8721 17.8618 26.0889 18.0645 24.5894 19.5234L19.3613 24.7109C17.8618 26.2104 17.6997 28.0342 18.875 29.8984L23.252 36.9502C22.8062 38.0444 22.3604 39.1792 21.9146 40.4761L13.8901 42.3809C11.7017 42.8672 10.5669 44.2856 10.5669 46.3931L10.5669 53.7285C10.5669 55.8359 11.7017 57.2949 13.8901 57.7812L21.9551 59.6455C22.3604 60.8208 22.8062 61.9961 23.2925 63.1714L18.9155 70.1421C17.6997 72.0063 17.9023 73.9111 19.4019 75.3701L24.5894 80.5981C26.0889 82.0571 27.9531 82.2192 29.7769 81.0845L36.8286 76.667C37.9634 77.1533 39.1387 77.5991 40.3545 78.0449L42.2593 86.1099C42.7456 88.2578 44.1641 89.4331 46.312 89.4331ZM50.0405 63.7793C42.4619 63.7793 36.2612 57.5381 36.2612 49.9595C36.2612 42.5024 42.5024 36.2612 50.0405 36.2612C57.5381 36.2612 63.7793 42.5024 63.7793 49.9595C63.7793 57.5381 57.5381 63.7793 50.0405 63.7793Z" fill="#a3a3a3" fill-rule="nonzero" opacity="1" stroke="none"/>
</g>
</g>
</svg>
